# xmcd
#
# Track frame offsets: 
#        150
#        11747
#        20307
#        43555
#        58415
#        75812
#        89997
#        102437
#        123882
#        140847
#
# Disc length: 2252 seconds
#
# Revision: 2
# Processed by: cddbd v1.5.2PL0 Copyright (c) Steve Scherf et al.
# Submitted via: ExactAudioCopyFreeDBPlugin 1.0
#
DISCID=8308ca0a
DTITLE=Andre Christovam - The 2120 Sessions
DYEAR=1991
DGENRE=Blues
TTITLE0=Lighthouse
TTITLE1=Spear Dance
TTITLE2=Don't Ever Leave Me
TTITLE3=Calliope
TTITLE4=Hard Times Killing Floor
TTITLE5=Bad Feeling
TTITLE6=Don't Tell Me
TTITLE7=Made Up My Mind
TTITLE8=Reverend Of High Sierras
TTITLE9=I've Got A Feeling
EXTD=
EXTT0=
EXTT1=
EXTT2=
EXTT3=
EXTT4=
EXTT5=
EXTT6=
EXTT7=
EXTT8=
EXTT9=
PLAYORDER=
